<svg xmlns="http://www.w3.org/2000/svg" width="10" height="11" fill="none"><path fill="#C4C4C4" fill-opacity=".4" fill-rule="evenodd" d="M5 1.0076c-.2213 0-.4282.0196-.5867.0517-.0792.0161-.1353.0332-.1703.047a.3186.3186 0 0 0-.017.0072c-.1925.165-.4758.1465-.6474-.0481-.1794-.2035-.169-.5223.0233-.7121.0983-.0971.2165-.1548.3074-.1907.099-.0393.2098-.0695.3246-.0928C4.4635.0232 4.732 0 5 0c.268 0 .5365.0232.7661.0698.1148.0233.2255.0535.3246.0928.091.036.209.0936.3074.1907.1923.1898.2027.5086.0233.712-.1716.1947-.4549.2132-.6475.0482a.316.316 0 0 0-.017-.0072c-.0349-.0139-.091-.0309-.1702-.047-.1585-.0321-.3654-.0517-.5867-.0517ZM.7342 3.3774C.5667 3.3594.3443 3.3588 0 3.3588V2.351H10v1.0077c-.3443 0-.5667.0006-.7342.0186-.1596.0172-.2158.046-.2446.0663a.4908.4908 0 0 0-.1314.139c-.0193.0305-.0464.09-.0627.2588-.017.1772-.0176.4125-.0176.7768v3.8958c0 .4466 0 .8314-.039 1.1396-.042.3302-.1367.6468-.3794.9036-.2427.2568-.542.3569-.854.4013C7.2457 11 6.882 11 6.4598 11H3.5401c-.4221 0-.7859 0-1.0771-.0414-.3122-.0444-.6114-.1445-.8541-.4013-.2427-.2568-.3373-.5733-.3793-.9036-.0392-.3082-.0392-.693-.0391-1.1396V4.6183c0-.3643-.0006-.5995-.0176-.7768-.0163-.1688-.0434-.2283-.0627-.2588a.4908.4908 0 0 0-.1314-.139C.95 3.4233.8938 3.3946.7342 3.3774Zm7.2143-.0186h-5.897c.0362.1242.0565.252.0689.3807.0225.2344.0225.5215.0225.8544v3.887c0 .4893.001.8055.0306 1.0385.0277.2186.0726.287.1088.3254.0363.0384.101.0858.3076.1152.2202.0313.5191.0324.9815.0324h2.8572c.4624 0 .7613-.0011.9815-.0324.2066-.0294.2713-.0769.3076-.1152.0362-.0383.081-.1068.1088-.3254.0296-.233.0306-.5492.0306-1.0385V4.594c0-.333 0-.62.0225-.8544.0124-.1288.0327-.2565.069-.3807ZM3.889 5.29c.263 0 .4762.2255.4762.5038v1.7633c0 .2783-.2132.5039-.4762.5039s-.4762-.2256-.4762-.5038V5.7938c0-.2783.2132-.5038.4762-.5038Zm2.2222 0c.263 0 .4762.2255.4762.5038v1.7633c0 .2783-.2132.5039-.4762.5039s-.4762-.2256-.4762-.5038V5.7938c0-.2783.2132-.5038.4762-.5038Z" clip-rule="evenodd"/></svg>