<svg width="9" height="9" viewBox="0 0 9 9" fill="none" xmlns="http://www.w3.org/2000/svg">
<path fill-rule="evenodd" clip-rule="evenodd" d="M7.97011 3.02981L8.50002 2.49991C9.0523 1.94762 9.0523 1.05219 8.50002 0.499907C7.94773 -0.0523782 7.0523 -0.0523775 6.50002 0.499907L5.95753 1.0424C6.4188 1.88305 7.11726 2.57587 7.97011 3.02981ZM4.50209 2.49783L1.8564 5.14353C1.43134 5.56859 1.21881 5.78112 1.07907 6.04221C0.939336 6.30331 0.88039 6.59804 0.7625 7.18749L0.647104 7.76447C0.580582 8.09708 0.547321 8.26339 0.641929 8.35799C0.736536 8.4526 0.90284 8.41934 1.23545 8.35282L1.23545 8.35282L1.81243 8.23742L1.81244 8.23742C2.40189 8.11953 2.69661 8.06059 2.95771 7.92085C3.2188 7.78112 3.43132 7.5686 3.85636 7.14356L3.85638 7.14354L3.8564 7.14353L6.51082 4.4891C5.71004 3.96895 5.02669 3.29005 4.50209 2.49783Z" fill="#C4C4C4" fill-opacity="0.7"/>
</svg>
